<svg width="481" height="115" viewBox="0 0 481 115" fill="none" xmlns="http://www.w3.org/2000/svg">
<path d="M181.447 24.5923L179.904 33.2132C177.545 27.8591 171.873 23.6848 162.844 23.6848C147.916 23.6848 133.987 35.6633 130.629 54.8107C127.271 73.9582 136.936 86.1635 151.728 86.1635C160.757 86.1635 167.926 82.0346 172.282 76.6806L170.648 85.3015H189.251L200.05 24.5923H181.447ZM176.138 54.9469C174.414 64.6567 167.2 69.9654 160.122 69.9654C153.134 69.9654 147.825 64.5206 149.55 54.8107C151.183 45.1009 158.488 39.883 165.43 39.883C172.508 39.9284 177.862 45.237 176.138 54.9469Z" fill="url(#paint0_linear_4_103)"/>
<path d="M232.719 23.6848C217.473 23.6848 207.446 31.6251 207.446 42.4239C207.446 62.2519 237.483 59.0758 237.483 67.7874C237.483 71.0543 233.762 72.7785 229.406 72.7785C223.962 72.7785 220.695 69.9654 221.012 65.3827H203.045C201.093 77.6788 212.301 86.1635 227.954 86.1635C243.517 86.1635 255.178 79.3122 255.178 67.3337C255.178 48.5946 225.005 50.9994 225.005 42.0609C225.005 39.0209 228.045 37.1606 232.174 37.1606C237.619 37.1606 240.659 39.9737 240.341 44.3296H257.311C258.309 32.6233 248.735 23.6848 232.719 23.6848Z" fill="url(#paint1_linear_4_103)"/>
<path d="M311.622 23.9116C303.228 23.9116 296.059 27.4961 291.477 32.6232L296.377 4.76416H277.774L263.527 85.3014H282.13L288.028 52.0883V52.3151C289.435 44.0572 294.789 39.4746 301.958 39.4746C308.945 39.4746 312.757 44.0572 311.305 52.3151L305.406 85.3014H323.918L330.225 49.8196C333.175 33.4853 325.461 23.9116 311.622 23.9116Z" fill="url(#paint2_linear_4_103)"/>
<path d="M336.895 85.3015H355.498L366.161 24.5923H347.558L336.895 85.3015Z" fill="url(#paint3_linear_4_103)"/>
<path d="M410.263 24.5922H400.236L400.327 24.0477C401.416 17.6047 404.365 15.4268 411.443 15.8805L414.166 0.0907144C395.88 -0.907493 384.764 6.94205 381.815 22.8226L381.497 24.5468H374.736L372.014 40.019H378.775L370.834 85.3014H389.573L397.514 40.019H407.541L410.263 24.5922Z" fill="url(#paint4_linear_4_103)"/>
<path d="M460.854 24.5923L440.164 62.5695L432.768 24.5923H412.078L426.462 83.2597L407.087 114.159H427.097L481 24.5923H460.854Z" fill="url(#paint5_linear_4_103)"/>
<path d="M97.5522 39.6108C102.679 39.6108 105.266 42.3332 106.037 46.5982H125.865C125.275 34.5744 118.832 26.7702 107.988 24.4562C108.306 21.4616 108.669 17.741 108.669 17.741H102.952L102.18 23.7756C101.681 23.7756 101.182 23.7302 100.638 23.7302C98.505 23.7302 96.4179 23.9117 94.3761 24.2747C94.6937 21.3708 95.0567 17.7863 95.0567 17.7863H89.3397L88.2961 25.8627C76.3176 30.0824 67.2883 40.5183 64.7475 55.0376C61.9343 70.6006 68.2866 81.3994 80.2197 84.9839L79.3576 93.2418C79.3576 93.2418 84.8024 93.4233 85.2107 93.2418C85.3468 93.151 85.7552 88.7045 86.0728 86.1182C87.2525 86.2543 88.4322 86.2997 89.7027 86.2997C91.0638 86.2997 92.3797 86.2089 93.6955 86.0728L92.9695 93.2418C92.9695 93.2418 98.142 93.4233 98.5958 93.2418C98.7773 93.151 99.5032 88.0239 99.8662 84.8931C110.347 81.8985 118.605 74.2305 122.961 63.4317H103.042C100.774 67.8782 97.3707 70.4191 92.2435 70.4191C85.6191 70.4191 81.8985 65.2012 83.7588 55.083C85.4376 44.8287 90.8823 39.6108 97.5522 39.6108Z" fill="url(#paint6_linear_4_103)"/>
<path d="M57.7599 76.8167C41.6071 76.1814 25.3182 75.9092 9.4376 75.8638C9.61909 69.1032 9.80059 62.3426 9.89133 55.5367C9.98208 48.64 10.0275 41.7433 10.0275 34.8465C28.3582 33.8937 47.2334 32.714 65.7456 30.8991C66.9253 29.4018 68.1957 28.0406 69.5116 26.7248C69.4208 26.7248 69.3754 26.7248 69.2847 26.7248C48.7761 25.8173 25.7719 25.6358 5.26328 25.8627L0.907462 25.9081C0.58985 35.7086 0.362985 45.6 0.181493 55.4459C0.0453733 65.3826 0 75.4101 0 85.3468L4.7188 85.1653C23.1403 84.4847 42.0608 83.5319 60.8453 82.0346C59.6656 80.4011 58.622 78.6769 57.7599 76.8167Z" fill="url(#paint7_linear_4_103)"/>
<path d="M27.4961 11.5248C32.2603 12.4777 36.9791 13.3851 41.7433 14.2472C52.9051 16.1983 64.7474 18.2401 76.4991 19.8735L78.677 19.8281C80.3104 18.9206 81.9892 18.1039 83.7588 17.378C82.7152 17.0604 81.6716 16.6974 80.5826 16.3798C62.9325 10.8442 42.923 5.49022 25.0006 1.1344L20.5994 0.0908203C18.603 7.0329 16.6066 14.0657 14.7009 21.0532L25.0914 20.8717C25.9081 17.7409 26.7248 14.6556 27.4961 11.5248Z" fill="url(#paint8_linear_4_103)"/>
<path d="M57.6238 46.2352C57.0339 45.9176 56.3533 45.6453 55.6727 45.4638C50.6363 44.1026 45.4184 47.0973 44.0572 52.1337C42.696 57.1701 45.6906 62.388 50.7271 63.7492C52.179 64.1575 53.5856 64.1575 54.9921 63.8853C54.9014 60.7092 55.1736 57.2608 55.8088 53.6764C56.2172 51.1355 56.8524 48.6399 57.6238 46.2352Z" fill="url(#paint9_linear_4_103)"/>
<path d="M19.1928 99.2309C23.957 98.2781 28.6758 97.3706 33.4399 96.5085C44.6017 94.5575 56.4441 92.5157 68.1957 90.8823L70.3736 90.9276C72.0071 91.8351 73.6859 92.6518 75.4554 93.3778C74.4118 93.6954 73.3682 94.0584 72.2793 94.376C54.6292 99.9115 34.6196 105.266 16.6973 109.621L12.2961 110.71C10.2997 103.768 8.30325 96.7354 6.39758 89.7479L16.788 89.9294C17.6047 93.0148 18.4214 96.1455 19.1928 99.2309Z" fill="url(#paint10_linear_4_103)"/>
<path d="M360.58 0C354.863 0 350.326 3.85671 349.373 8.757C348.511 13.5666 351.732 17.4233 357.449 17.4233C363.075 17.4233 367.613 13.5666 368.565 8.757C369.428 3.85671 366.206 0 360.58 0Z" fill="url(#paint11_linear_4_103)"/>
<path d="M73.6858 114.431C71.1903 114.431 69.3754 113.251 69.6476 110.983H72.4608C72.4154 111.754 72.8238 112.298 73.7766 112.298C74.5479 112.298 75.0924 111.935 75.0924 111.255C75.0924 109.485 70.3282 109.894 70.3282 106.581C70.2829 104.313 72.1432 103.042 74.6387 103.042C77.0888 103.042 78.7223 104.313 78.4954 106.354H75.6369C75.7276 105.674 75.3193 105.175 74.5026 105.175C73.7312 105.175 73.2321 105.583 73.2321 106.218C73.2321 107.943 78.0417 107.761 78.0417 111.028C77.9963 112.979 76.3629 114.431 73.6858 114.431Z" fill="white"/>
<path d="M80.4919 103.224H89.0674L88.7044 105.356H85.7551L84.1671 114.34H81.4447L83.0327 105.356H80.0835L80.4919 103.224Z" fill="white"/>
<path d="M95.7372 112.344H91.6082L90.61 114.295H87.7969L93.7861 103.178H96.9169L98.9587 114.295H96.1001L95.7372 112.344ZM94.739 106.173L92.6064 110.302H95.3742L94.739 106.173Z" fill="white"/>
<path d="M107.217 103.088C109.848 103.088 111.618 104.585 111.799 106.99H108.805C108.532 106.082 107.761 105.583 106.718 105.583C105.039 105.583 103.723 106.808 103.36 108.759C102.997 110.71 103.95 111.935 105.583 111.935C106.627 111.935 107.534 111.436 108.169 110.529H111.164C110.12 112.934 107.852 114.386 105.22 114.386C101.953 114.386 100.048 112.072 100.638 108.714C101.227 105.447 103.95 103.088 107.217 103.088Z" fill="white"/>
<path d="M118.378 103.224H121.101L119.785 110.801C119.377 113.206 117.698 114.476 115.474 114.476C113.206 114.476 111.845 113.16 112.298 110.665H114.975C114.794 111.618 115.112 112.071 115.837 112.071C116.473 112.071 116.926 111.663 117.108 110.846L118.378 103.224Z" fill="white"/>
<path d="M126.591 114.431C123.732 114.431 121.872 112.525 121.872 109.757C121.872 105.81 124.594 103.042 128.451 103.042C131.355 103.042 133.215 104.903 133.215 107.67C133.215 111.618 130.493 114.431 126.591 114.431ZM126.999 111.935C129.132 111.935 130.493 110.075 130.493 107.988C130.493 106.491 129.631 105.538 128.088 105.538C125.91 105.538 124.594 107.353 124.594 109.485C124.594 110.983 125.457 111.935 126.999 111.935Z" fill="white"/>
<path d="M145.648 103.224L143.697 114.34H140.974L137.662 107.489L136.437 114.34H133.714L135.666 103.224H138.388L141.7 110.12L142.925 103.224H145.648Z" fill="white"/>
<path d="M152.907 112.344H148.778L147.78 114.295H144.967L150.956 103.178H154.087L156.129 114.295H153.27L152.907 112.344ZM151.954 106.173L149.822 110.302H152.59L151.954 106.173Z" fill="white"/>
<path d="M163.842 103.224C166.565 103.224 167.654 104.812 167.291 106.717C167.064 108.124 166.065 109.44 164.251 109.939L166.02 114.34H162.98L161.392 110.166H160.757L160.031 114.34H157.308L159.26 103.224H163.842ZM163.252 105.447H161.574L161.074 108.215H162.753C163.751 108.215 164.341 107.67 164.477 106.808C164.659 105.992 164.296 105.447 163.252 105.447Z" fill="white"/>
<path d="M179.541 103.224L177.59 114.34H174.868L171.556 107.489L170.331 114.34H167.608L169.559 103.224H172.282L175.594 110.12L176.819 103.224H179.541Z" fill="white"/>
<path d="M187.935 105.356H183.852L183.443 107.67H187.073L186.71 109.712H183.08L182.627 112.208H186.71L186.347 114.34H179.541L181.492 103.224H188.298L187.935 105.356Z" fill="white"/>
<path d="M195.331 109.394L194.469 114.295H191.747L193.698 103.178H196.42L195.558 108.033L200.141 103.178H203.317L198.054 108.623L201.502 114.295H198.19L195.331 109.394Z" fill="white"/>
<path d="M210.032 112.344H205.903L204.905 114.295H202.092L208.081 103.178H211.212L213.253 114.295H210.395L210.032 112.344ZM209.079 106.173L206.947 110.302H209.714L209.079 106.173Z" fill="white"/>
<path d="M226.321 103.224L224.37 114.34H221.648L218.335 107.489L217.11 114.34H214.388L216.339 103.224H219.061L222.373 110.12L223.599 103.224H226.321Z" fill="white"/>
<path d="M227.682 103.224H236.258L235.895 105.356H232.945L231.357 114.34H228.635L230.223 105.356H227.274L227.682 103.224Z" fill="white"/>
<path d="M240.976 114.431C238.118 114.431 236.258 112.525 236.258 109.757C236.258 105.81 238.98 103.042 242.837 103.042C245.741 103.042 247.601 104.903 247.601 107.67C247.555 111.618 244.878 114.431 240.976 114.431ZM241.385 111.935C243.517 111.935 244.878 110.075 244.878 107.988C244.878 106.491 244.016 105.538 242.474 105.538C240.296 105.538 238.98 107.353 238.98 109.485C238.98 110.983 239.797 111.935 241.385 111.935Z" fill="white"/>
<path d="M254.634 103.224C257.356 103.224 258.445 104.812 258.082 106.717C257.855 108.124 256.857 109.44 255.042 109.939L256.812 114.34H253.772L252.184 110.166H251.548L250.822 114.34H248.1L250.051 103.224H254.634ZM254.089 105.447H252.41L251.911 108.215H253.59C254.588 108.215 255.178 107.67 255.314 106.808C255.496 105.992 255.087 105.447 254.089 105.447Z" fill="white"/>
<path d="M259.534 103.224H262.619L263.935 107.852L266.884 103.224H269.924L264.797 110.665L264.117 114.34H261.394L262.075 110.665L259.534 103.224Z" fill="white"/>
<path d="M276.277 109.394L275.415 114.295H272.692L274.643 103.178H277.366L276.503 108.033L281.086 103.178H284.262L278.999 108.623L282.447 114.295H279.135L276.277 109.394Z" fill="white"/>
<path d="M290.252 103.224C292.974 103.224 294.063 104.812 293.7 106.717C293.473 108.124 292.475 109.44 290.66 109.939L292.43 114.34H289.39L287.801 110.166H287.166L286.44 114.34H283.718L285.669 103.224H290.252ZM289.707 105.447H288.028L287.529 108.215H289.208C290.206 108.215 290.796 107.67 290.932 106.808C291.114 105.992 290.705 105.447 289.707 105.447Z" fill="white"/>
<path d="M295.152 103.224H298.237L299.553 107.852L302.502 103.224H305.542L300.415 110.665L299.735 114.34H297.012L297.693 110.665L295.152 103.224Z" fill="white"/>
<path d="M309.762 110.347H308.083L307.357 114.34H304.635L306.586 103.224H310.987C313.71 103.224 314.798 104.766 314.435 106.808C314.163 108.623 312.621 110.347 309.762 110.347ZM309.944 108.215C311.032 108.215 311.577 107.625 311.713 106.808C311.849 105.946 311.486 105.402 310.443 105.402H308.991L308.492 108.26H309.944V108.215Z" fill="white"/>
<path d="M315.887 103.224H324.463L324.1 105.356H321.151L319.563 114.34H316.84L318.428 105.356H315.479L315.887 103.224Z" fill="white"/>
<path d="M329.182 114.431C326.323 114.431 324.463 112.525 324.463 109.757C324.463 105.81 327.185 103.042 331.042 103.042C333.946 103.042 335.806 104.903 335.806 107.67C335.761 111.618 333.084 114.431 329.182 114.431ZM329.59 111.935C331.723 111.935 333.084 110.075 333.084 107.988C333.084 106.491 332.222 105.538 330.679 105.538C328.501 105.538 327.185 107.353 327.185 109.485C327.185 110.983 328.002 111.935 329.59 111.935Z" fill="white"/>
<path d="M337.712 103.224H340.616L340.797 111.3L344.2 103.224H347.195L347.649 111.255L350.689 103.224H353.592L348.738 114.34H345.471L344.972 107.035L341.841 114.34H338.574L337.712 103.224Z" fill="white"/>
<path d="M360.217 112.344H356.088L355.09 114.295H352.277L358.266 103.178H361.397L363.438 114.295H360.58L360.217 112.344ZM359.264 106.173L357.132 110.302H359.899L359.264 106.173Z" fill="white"/>
<path d="M369.291 103.224L367.703 112.253H371.243L370.88 114.295H364.618L366.569 103.178H369.291V103.224Z" fill="white"/>
<path d="M374.101 103.224H376.823L375.644 109.848C375.417 111.164 375.916 111.935 377.232 111.935C378.502 111.935 379.319 111.164 379.546 109.848L380.726 103.224H383.448L382.268 109.848C381.724 112.979 379.364 114.431 376.778 114.431C374.192 114.431 372.422 112.934 373.012 109.848L374.101 103.224Z" fill="white"/>
<path d="M384.718 103.224H393.294L392.931 105.356H389.982L388.394 114.34H385.671L387.259 105.356H384.31L384.718 103.224Z" fill="white"/>
<defs>
<linearGradient id="paint0_linear_4_103" x1="871.008" y1="-162.697" x2="-14.2658" y2="113.149" gradientUnits="userSpaceOnUse">
<stop stop-color="#F9DF7B"/>
<stop offset="0.3277" stop-color="#B57E10"/>
<stop offset="0.4011" stop-color="#E5C35C"/>
<stop offset="0.4361" stop-color="#F9DF7B"/>
<stop offset="0.5906" stop-color="#FFF3A6"/>
<stop offset="0.7536" stop-color="#F9DF7B"/>
<stop offset="1" stop-color="#B57E10"/>
</linearGradient>
<linearGradient id="paint1_linear_4_103" x1="876.176" y1="-146.113" x2="-9.09824" y2="129.734" gradientUnits="userSpaceOnUse">
<stop stop-color="#F9DF7B"/>
<stop offset="0.3277" stop-color="#B57E10"/>
<stop offset="0.4011" stop-color="#E5C35C"/>
<stop offset="0.4361" stop-color="#F9DF7B"/>
<stop offset="0.5906" stop-color="#FFF3A6"/>
<stop offset="0.7536" stop-color="#F9DF7B"/>
<stop offset="1" stop-color="#B57E10"/>
</linearGradient>
<linearGradient id="paint2_linear_4_103" x1="879.551" y1="-135.28" x2="-5.7228" y2="140.566" gradientUnits="userSpaceOnUse">
<stop stop-color="#F9DF7B"/>
<stop offset="0.3277" stop-color="#B57E10"/>
<stop offset="0.4011" stop-color="#E5C35C"/>
<stop offset="0.4361" stop-color="#F9DF7B"/>
<stop offset="0.5906" stop-color="#FFF3A6"/>
<stop offset="0.7536" stop-color="#F9DF7B"/>
<stop offset="1" stop-color="#B57E10"/>
</linearGradient>
<linearGradient id="paint3_linear_4_103" x1="886.849" y1="-111.86" x2="1.57465" y2="163.986" gradientUnits="userSpaceOnUse">
<stop stop-color="#F9DF7B"/>
<stop offset="0.3277" stop-color="#B57E10"/>
<stop offset="0.4011" stop-color="#E5C35C"/>
<stop offset="0.4361" stop-color="#F9DF7B"/>
<stop offset="0.5906" stop-color="#FFF3A6"/>
<stop offset="0.7536" stop-color="#F9DF7B"/>
<stop offset="1" stop-color="#B57E10"/>
</linearGradient>
<linearGradient id="paint4_linear_4_103" x1="887.394" y1="-110.11" x2="2.12024" y2="165.737" gradientUnits="userSpaceOnUse">
<stop stop-color="#F9DF7B"/>
<stop offset="0.3277" stop-color="#B57E10"/>
<stop offset="0.4011" stop-color="#E5C35C"/>
<stop offset="0.4361" stop-color="#F9DF7B"/>
<stop offset="0.5906" stop-color="#FFF3A6"/>
<stop offset="0.7536" stop-color="#F9DF7B"/>
<stop offset="1" stop-color="#B57E10"/>
</linearGradient>
<linearGradient id="paint5_linear_4_103" x1="896.971" y1="-79.3763" x2="11.6964" y2="196.47" gradientUnits="userSpaceOnUse">
<stop stop-color="#F9DF7B"/>
<stop offset="0.3277" stop-color="#B57E10"/>
<stop offset="0.4011" stop-color="#E5C35C"/>
<stop offset="0.4361" stop-color="#F9DF7B"/>
<stop offset="0.5906" stop-color="#FFF3A6"/>
<stop offset="0.7536" stop-color="#F9DF7B"/>
<stop offset="1" stop-color="#B57E10"/>
</linearGradient>
<linearGradient id="paint6_linear_4_103" x1="864.192" y1="-184.573" x2="-21.0822" y2="91.2729" gradientUnits="userSpaceOnUse">
<stop stop-color="#F9DF7B"/>
<stop offset="0.3277" stop-color="#B57E10"/>
<stop offset="0.4011" stop-color="#E5C35C"/>
<stop offset="0.4361" stop-color="#F9DF7B"/>
<stop offset="0.5906" stop-color="#FFF3A6"/>
<stop offset="0.7536" stop-color="#F9DF7B"/>
<stop offset="1" stop-color="#B57E10"/>
</linearGradient>
<linearGradient id="paint7_linear_4_103" x1="858.19" y1="-203.835" x2="-27.0841" y2="72.0113" gradientUnits="userSpaceOnUse">
<stop stop-color="#F9DF7B"/>
<stop offset="0.3277" stop-color="#B57E10"/>
<stop offset="0.4011" stop-color="#E5C35C"/>
<stop offset="0.4361" stop-color="#F9DF7B"/>
<stop offset="0.5906" stop-color="#FFF3A6"/>
<stop offset="0.7536" stop-color="#F9DF7B"/>
<stop offset="1" stop-color="#B57E10"/>
</linearGradient>
<linearGradient id="paint8_linear_4_103" x1="847.366" y1="-238.573" x2="-37.9082" y2="37.2733" gradientUnits="userSpaceOnUse">
<stop stop-color="#F9DF7B"/>
<stop offset="0.3277" stop-color="#B57E10"/>
<stop offset="0.4011" stop-color="#E5C35C"/>
<stop offset="0.4361" stop-color="#F9DF7B"/>
<stop offset="0.5906" stop-color="#FFF3A6"/>
<stop offset="0.7536" stop-color="#F9DF7B"/>
<stop offset="1" stop-color="#B57E10"/>
</linearGradient>
<linearGradient id="paint9_linear_4_103" x1="860.342" y1="-196.927" x2="-24.9318" y2="78.9189" gradientUnits="userSpaceOnUse">
<stop stop-color="#F9DF7B"/>
<stop offset="0.3277" stop-color="#B57E10"/>
<stop offset="0.4011" stop-color="#E5C35C"/>
<stop offset="0.4361" stop-color="#F9DF7B"/>
<stop offset="0.5906" stop-color="#FFF3A6"/>
<stop offset="0.7536" stop-color="#F9DF7B"/>
<stop offset="1" stop-color="#B57E10"/>
</linearGradient>
<linearGradient id="paint10_linear_4_103" x1="869.754" y1="-166.72" x2="-15.5194" y2="109.126" gradientUnits="userSpaceOnUse">
<stop stop-color="#F9DF7B"/>
<stop offset="0.3277" stop-color="#B57E10"/>
<stop offset="0.4011" stop-color="#E5C35C"/>
<stop offset="0.4361" stop-color="#F9DF7B"/>
<stop offset="0.5906" stop-color="#FFF3A6"/>
<stop offset="0.7536" stop-color="#F9DF7B"/>
<stop offset="1" stop-color="#B57E10"/>
</linearGradient>
<linearGradient id="paint11_linear_4_103" x1="874.374" y1="-151.894" x2="-10.8995" y2="123.952" gradientUnits="userSpaceOnUse">
<stop stop-color="#F9DF7B"/>
<stop offset="0.3277" stop-color="#B57E10"/>
<stop offset="0.4011" stop-color="#E5C35C"/>
<stop offset="0.4361" stop-color="#F9DF7B"/>
<stop offset="0.5906" stop-color="#FFF3A6"/>
<stop offset="0.7536" stop-color="#F9DF7B"/>
<stop offset="1" stop-color="#B57E10"/>
</linearGradient>
</defs>
</svg>
