<svg xmlns="http://www.w3.org/2000/svg" viewBox="0 0 300.82 48.03"><defs><style>.cls-1{fill:#ffffff;}</style></defs><g id="Warstwa_2"><g id="Warstwa_1-2" ><path class="cls-1" d="M23.11,21,2.74,21A2.74,2.74,0,0,0,0,23.69v.74a2.74,2.74,0,0,0,2.74,2.74H23.11a2.74,2.74,0,0,0,2.74-2.74v-.71A2.74,2.74,0,0,0,23.11,21Z"/><path class="cls-1" d="M28.67,0H2.74A2.74,2.74,0,0,0,0,2.75v.73A2.74,2.74,0,0,0,2.74,6.22H28.67a2.74,2.74,0,0,0,2.74-2.74V2.75A2.74,2.74,0,0,0,28.67,0Z"/><rect class="cls-1" y="41.83" width="31.39" height="6.19" rx="2.74"/><path class="cls-1" d="M155.08,21,134.7,21A2.74,2.74,0,0,0,132,23.69v.74a2.74,2.74,0,0,0,2.74,2.74h20.38a2.73,2.73,0,0,0,2.73-2.74v-.71A2.74,2.74,0,0,0,155.08,21Z"/><path class="cls-1" d="M160.64,0H134.7A2.74,2.74,0,0,0,132,2.75v.73a2.74,2.74,0,0,0,2.74,2.74h25.94a2.73,2.73,0,0,0,2.73-2.74V2.75A2.74,2.74,0,0,0,160.64,0Z"/><rect class="cls-1" x="131.96" y="41.83" width="31.39" height="6.19" rx="2.74"/><path class="cls-1" d="M93.66.84A33.4,33.4,0,0,0,86.42.07,26.07,26.07,0,0,0,73.88,3a21.74,21.74,0,0,0-8.62,8.31,23.36,23.36,0,0,0-3,9.54A2.76,2.76,0,0,0,65,23.93h1.44a2.78,2.78,0,0,0,2.79-2.46A21.16,21.16,0,0,1,71,14.79a14.92,14.92,0,0,1,5.76-6.6,18.14,18.14,0,0,1,9.88-2.45,30.13,30.13,0,0,1,6.58.68c1.11.25,2.84.77,4.48,1.31a2.74,2.74,0,0,0,3.58-2.61h0a2.72,2.72,0,0,0-1.82-2.58C97.63,1.91,95.3,1.22,93.66.84ZM87.43,26.72v.18a2.74,2.74,0,0,0,2.74,2.74h1.91a2.74,2.74,0,0,1,2.73,2.74v6.71a2.73,2.73,0,0,1-2.09,2.67,17.36,17.36,0,0,1-2,.34,32.65,32.65,0,0,1-3.77.27,28.05,28.05,0,0,1-3.38-.2,2.72,2.72,0,0,0-3,2.72v.33A2.76,2.76,0,0,0,83.1,48c.67,0,1.35.07,2.05.07a38.09,38.09,0,0,0,9.19-1,32.14,32.14,0,0,0,5.23-1.7,2.72,2.72,0,0,0,1.62-2.5V26.72A2.74,2.74,0,0,0,98.45,24H90.17A2.74,2.74,0,0,0,87.43,26.72Z"/><path class="cls-1" d="M201.3,30.75H210a2.75,2.75,0,0,1,2.5,1.61l6.32,14A2.73,2.73,0,0,0,221.35,48h2.17A2.74,2.74,0,0,0,226,44.1l-5.82-12.25a2.7,2.7,0,0,1,.94-3.44A14.6,14.6,0,0,0,225.61,24a15.71,15.71,0,0,0,2.25-8.68,15.93,15.93,0,0,0-2.16-8.71,12.76,12.76,0,0,0-6.08-5A24,24,0,0,0,210.44,0h-13.6a2.74,2.74,0,0,0-2.74,2.74v.64a2.74,2.74,0,0,0,2.74,2.74h13.53q5.15,0,7.76,2.42a8.78,8.78,0,0,1,2.61,6.8,8.93,8.93,0,0,1-2.61,6.8q-2.61,2.49-7.76,2.49H196.84a2.74,2.74,0,0,0-2.74,2.74v3.39"/><path class="cls-1" d="M282.08,0h-3.41a2.75,2.75,0,0,0-2.57,1.78l-16,42.53a2.74,2.74,0,0,0,2.57,3.7H264a2.73,2.73,0,0,0,2.56-1.78l4.16-11.17,2.19-5.91L277.8,16a2.74,2.74,0,0,1,5.14,0l4.89,13.15L290,35.07l4.16,11.17A2.73,2.73,0,0,0,296.74,48h1.34a2.74,2.74,0,0,0,2.57-3.7l-16-42.53A2.73,2.73,0,0,0,282.08,0Z"/></g></g></svg>
