<?xml version="1.0" standalone="no"?>
<!DOCTYPE svg PUBLIC "-//W3C//DTD SVG 1.1//EN" "http://www.w3.org/Graphics/SVG/1.1/DTD/svg11.dtd">
<svg xmlns="http://www.w3.org/2000/svg" id="GW_Logo_RED" data-name="GW Logo RED" width="106.29299926757812" height="36.0620002746582" viewBox="0 0 106.293 36.062">
  <g id="Group_79" data-name="Group 79">
    <path id="Path_3" data-name="Path 3" d="M91.441,100.012h-.035a4.148,4.148,0,0,0-3.591-1.565c-2.464,0-5.035,1.337-5.035,4.766,0,3.412,2.588,4.748,5.052,4.748a4.075,4.075,0,0,0,3.573-1.706h.035v1.337c0,1.512-.95,2.779-3.433,2.779-1.689,0-2.728-.3-3.062-1.5h-1.76c.369,2.55,2.658,2.867,4.647,2.867,3.785,0,5.369-1.337,5.369-4.643V98.658h-1.76Zm-3.4,6.472a3.106,3.106,0,0,1-3.4-3.253,3.4,3.4,0,1,1,3.4,3.253Z" transform="translate(-82.78 -95.211)" fill="#fff"/>
    <rect id="Rectangle_60" data-name="Rectangle 60" width="1.76" height="12.662" transform="translate(12.51)" fill="#fff"/>
    <path id="Path_4" data-name="Path 4" d="M166.145,97.928c-3.591,0-5.351,2.269-5.351,4.924s1.76,4.924,5.351,4.924,5.351-2.269,5.351-4.924S169.736,97.928,166.145,97.928Zm0,8.371a3.447,3.447,0,1,1,3.485-3.447A3.227,3.227,0,0,1,166.145,106.3Z" transform="translate(-144.93 -94.798)" fill="#fff"/>
    <path id="Path_5" data-name="Path 5" d="M232.308,90.627a4.708,4.708,0,0,0-5.017-4.872,4.063,4.063,0,0,0-3.5,1.6h-.035V82.52h-1.76V95.182h1.76V94h.035a4.4,4.4,0,0,0,3.5,1.495A4.708,4.708,0,0,0,232.308,90.627Zm-8.66,0a3.182,3.182,0,0,1,3.415-3.394,3.394,3.394,0,0,1,0,6.788A3.174,3.174,0,0,1,223.648,90.627Z" transform="translate(-193.684 -82.52)" fill="#fff"/>
    <path id="Path_6" data-name="Path 6" d="M289.11,107.46v-1.231a2.448,2.448,0,0,1-.616.07.7.7,0,0,1-.792-.791v-4.959c0-2.163-2.359-2.62-4.242-2.62-2.764,0-4.348.9-4.577,3.2h1.655c.053-1.407,1.356-1.829,2.852-1.829,1.426,0,2.658.246,2.658,1.512,0,.826-.616,1.02-1.6,1.108l-2.007.211c-2.957.334-3.96,1.161-3.96,2.866,0,1.2.7,2.779,3.749,2.779a5.253,5.253,0,0,0,3.926-1.495c.123,1.038.686,1.284,1.584,1.284A9.052,9.052,0,0,0,289.11,107.46Zm-3.063-3.64c0,1.548-1.672,2.585-3.661,2.585-1.285,0-2.147-.6-2.147-1.46,0-.985.7-1.319,2.095-1.513l1.989-.246c.986-.123,1.461-.246,1.725-.545Z" transform="translate(-238.683 -94.798)" fill="#fff"/>
    <rect id="Rectangle_61" data-name="Rectangle 61" width="1.76" height="12.662" transform="translate(51.976)" fill="#fff"/>
    <path id="Path_7" data-name="Path 7" d="M364.863,108.7l3.644-9.215h-1.866L364,106.521h-.035l-2.341-7.035h-1.937l-2.288,7.035h-.035l-2.552-7.035h-1.954l3.573,9.215H358.3l2.306-7.035h.035l2.306,7.035Z" transform="translate(-297.938 -96.039)" fill="#fff"/>
    <path id="Path_8" data-name="Path 8" d="M437.5,97.928c-3.591,0-5.351,2.269-5.351,4.924s1.76,4.924,5.351,4.924,5.351-2.269,5.351-4.924S441.091,97.928,437.5,97.928Zm0,8.371a3.447,3.447,0,1,1,3.485-3.447A3.228,3.228,0,0,1,437.5,106.3Z" transform="translate(-361.105 -94.798)" fill="#fff"/>
    <path id="Path_9" data-name="Path 9" d="M494.412,99.933h-.035V98.245h-1.76v9.216h1.76v-4.678a2.756,2.756,0,0,1,2.957-3.025,4.205,4.205,0,0,1,1.25.176v-1.9a3.452,3.452,0,0,0-1-.105A3.536,3.536,0,0,0,494.412,99.933Z" transform="translate(-409.276 -94.798)" fill="#fff"/>
    <path id="Path_10" data-name="Path 10" d="M531.684,85.549h-1.76V95.732c0,1.337.687,2.181,2.43,2.181a10.067,10.067,0,0,0,1.971-.123V96.312a7.089,7.089,0,0,1-1.215.123c-.9,0-1.426-.246-1.426-1v-5.68h2.64V88.381h-2.64Z" transform="translate(-438.998 -84.934)" fill="#fff"/>
    <path id="Path_11" data-name="Path 11" d="M565.28,85.65a4.148,4.148,0,0,0-3.609,1.706h-.035V82.52h-1.76V95.182h1.76V89.871a2.755,2.755,0,0,1,3.028-2.744c1.9,0,2.728.774,2.728,2.128v5.927h1.76V88.9C569.153,86.6,567.5,85.65,565.28,85.65Z" transform="translate(-462.859 -82.52)" fill="#fff"/>
    <path id="Path_12" data-name="Path 12" d="M250.046,177.5a6.544,6.544,0,0,0-6.633,6.707,5.446,5.446,0,0,0,3.752,5.4c-.248,1.159-.488,2.368-.739,3.79-.142.788,1.193,1.212,1.314.505.223-1.408.5-2.743.8-4.054.13.008.26.013.394.013.182,0,2.508.162,2.508-.4,0-.243-.364-.2-.647-.142a5.25,5.25,0,0,1-1.153.081,4.57,4.57,0,0,1-.973-.1q.106-.453.214-.906a8.251,8.251,0,0,0,.961.058c3.984,0,5.7-2.728,5.7-5.455A5.346,5.346,0,0,0,250.046,177.5Zm-.263,10.486a7.156,7.156,0,0,1-.788-.06c.387-1.6.785-3.209,1.132-4.91.121-.586-1.314-.707-1.415-.262-.53,2.4-.96,4.187-1.359,5.994a5.439,5.439,0,0,1-2.1-4.62c0-2.95,1.6-6.021,4.772-6.021,2.2,0,3.8,2.243,3.8,4.687C253.827,185.341,252.432,187.988,249.783,187.988Z" transform="translate(-210.749 -158.205)" fill="#fff"/>
    <path id="Path_13" data-name="Path 13" d="M325.177,177.5a6.544,6.544,0,0,0-6.633,6.707,5.447,5.447,0,0,0,3.752,5.4c-.248,1.159-.488,2.368-.738,3.79-.142.788,1.193,1.212,1.314.505.223-1.408.5-2.743.8-4.054.129.008.26.013.393.013.182,0,2.508.162,2.508-.4,0-.243-.364-.2-.647-.142a5.252,5.252,0,0,1-1.153.081,4.57,4.57,0,0,1-.974-.1q.106-.453.215-.906a8.244,8.244,0,0,0,.961.058c3.983,0,5.7-2.728,5.7-5.455A5.345,5.345,0,0,0,325.177,177.5Zm-.263,10.486a7.137,7.137,0,0,1-.788-.06c.387-1.6.784-3.209,1.132-4.91.122-.586-1.314-.707-1.415-.262-.53,2.4-.96,4.187-1.359,5.994a5.439,5.439,0,0,1-2.1-4.62c0-2.95,1.6-6.021,4.772-6.021,2.2,0,3.8,2.243,3.8,4.687C328.958,185.341,327.563,187.988,324.914,187.988Z" transform="translate(-270.602 -158.205)" fill="#fff"/>
    <path id="Path_14" data-name="Path 14" d="M400.309,177.5a6.544,6.544,0,0,0-6.633,6.707,5.446,5.446,0,0,0,3.751,5.4c-.248,1.159-.488,2.368-.738,3.79-.142.788,1.193,1.212,1.315.505.222-1.408.5-2.743.8-4.054.129.008.26.013.394.013.182,0,2.508.162,2.508-.4,0-.243-.364-.2-.647-.142a5.25,5.25,0,0,1-1.153.081,4.575,4.575,0,0,1-.974-.1q.106-.453.215-.906a8.249,8.249,0,0,0,.961.058c3.984,0,5.7-2.728,5.7-5.455A5.346,5.346,0,0,0,400.309,177.5Zm-.263,10.486a7.133,7.133,0,0,1-.788-.06c.387-1.6.784-3.209,1.132-4.91.122-.586-1.314-.707-1.416-.262-.53,2.4-.96,4.187-1.359,5.994a5.438,5.438,0,0,1-2.1-4.62c0-2.95,1.6-6.021,4.772-6.021,2.2,0,3.8,2.243,3.8,4.687C404.09,185.341,402.695,187.988,400.046,187.988Z" transform="translate(-330.456 -158.205)" fill="#fff"/>
  </g>
</svg>