<?xml version="1.0" standalone="no"?>
<!DOCTYPE svg PUBLIC "-//W3C//DTD SVG 1.1//EN" "http://www.w3.org/Graphics/SVG/1.1/DTD/svg11.dtd">
<svg xmlns="http://www.w3.org/2000/svg" width="67" height="17" viewBox="0 0 67 17" fill="none">
<path fill-rule="evenodd" clip-rule="evenodd" d="M40.2713 5.33901C39.1999 5.33901 38.3428 5.5468 37.5928 5.96238C37.5928 3.57277 37.5928 1.49485 37.6999 0.767578L32.6642 1.59875V2.01433L33.1999 2.11823C33.8427 2.22212 34.057 2.63771 34.2713 3.46888C34.3785 5.23511 34.3785 14.5858 34.2713 16.1442C35.6642 16.4559 37.057 16.6637 38.557 16.6637C42.5213 16.6637 44.9856 14.2741 44.9856 10.4299C44.8785 7.52083 42.8427 5.33901 40.2713 5.33901ZM38.557 15.9364C38.2356 15.9364 37.9142 15.9364 37.6999 15.8325C37.5928 14.7936 37.5928 10.4299 37.5928 6.68966C38.0213 6.58576 38.3428 6.48186 38.7713 6.48186C40.4856 6.48186 41.3428 8.35199 41.3428 10.7416C41.3428 13.6507 40.1642 15.9364 38.557 15.9364ZM6.30706 2.11823C6.19992 3.46888 6.19991 5.85849 6.19991 8.35199L8.02133 8.2481C9.1999 8.2481 9.73562 7.41693 9.94991 6.17018H10.5928V11.365H9.94991C9.73562 10.1182 9.1999 9.18316 8.02133 9.18316L6.19991 9.07927C6.19991 10.9494 6.30706 12.5078 6.30706 13.4429C6.4142 14.7936 6.84277 15.5208 7.80705 15.5208L8.6642 15.6247V16.2481H0.0927734V15.6247L0.84277 15.5208C1.80705 15.4169 2.23564 14.7936 2.34278 13.4429C2.44992 11.1572 2.55706 6.37797 2.34278 3.78057C2.23564 2.42992 1.80705 1.80654 0.84277 1.70264L0.0927734 1.59875V1.07927H13.3785L13.4856 5.4429L12.7356 5.6507C11.9856 3.46888 10.9142 2.22212 8.87848 2.22212H6.30706V2.11823ZM17.7713 5.13121C14.0213 5.13121 11.8785 7.72862 11.8785 10.9494C11.8785 14.2741 13.8071 16.7676 17.5571 16.7676C21.3071 16.7676 23.4499 14.1702 23.4499 10.9494C23.557 7.62472 21.6285 5.13121 17.7713 5.13121ZM17.7713 16.0403C16.2713 16.0403 15.5213 13.7546 15.5213 10.9494C15.5213 8.04031 15.9499 5.85849 17.6642 5.85849C19.2713 5.85849 20.0213 8.1442 20.0213 10.9494C19.9142 13.8585 19.4856 16.0403 17.7713 16.0403ZM56.3427 10.4299C56.3427 7.41693 54.8427 5.13121 51.6285 5.13121C47.7713 5.13121 45.8427 8.04031 45.8427 11.0533C45.8427 14.4819 48.307 16.7676 51.6285 16.7676C53.7713 16.7676 55.3785 15.7286 56.1285 14.6897L55.807 14.2741C55.057 14.7936 54.4142 15.1052 53.2356 15.1052C50.557 15.1052 49.1642 13.1312 49.2713 10.4299H56.3427ZM51.4142 5.85849C52.6999 5.85849 52.9142 8.04031 52.9142 9.49485L49.3785 9.59875C49.3785 7.93641 50.1285 5.85849 51.4142 5.85849ZM66.0927 13.0273C66.0927 15.313 64.1642 16.7676 61.2713 16.7676C59.8785 16.7676 58.1642 16.4559 57.307 16.1442L57.1999 12.9234L57.7356 12.8195C58.5927 15.0013 59.6642 15.8325 61.057 15.8325C62.2356 15.8325 62.9856 15.0013 62.9856 14.1702C62.9856 13.339 62.4499 12.8195 60.5213 12.0923C58.6999 11.4689 57.4142 10.7416 57.4142 8.76758C57.4142 6.89745 59.1284 5.23511 61.9142 5.23511C63.307 5.23511 64.4856 5.4429 65.4499 5.85849L65.557 8.76758L65.0213 8.87147C64.3785 6.89745 63.4142 6.06628 62.0213 6.06628C61.1642 6.06628 60.4142 6.68966 60.4142 7.72862C60.4142 8.66368 61.1642 9.18316 63.307 10.0143C65.2356 10.5338 66.0927 11.4689 66.0927 13.0273ZM33.307 5.4429L32.1285 8.45589C30.6285 7.52082 28.9142 7.93641 28.5928 8.45589C28.4856 10.2221 28.4856 13.0273 28.6999 14.378C28.807 15.2091 29.0213 15.7286 29.7713 15.7286L30.6285 15.8325V16.4559H23.557V15.8325L24.0928 15.7286C24.7356 15.6247 25.057 15.2091 25.1642 14.378C25.2713 12.8195 25.2713 9.70264 25.1642 7.93641C25.057 7.00134 24.7356 6.58576 24.0928 6.58576L23.557 6.48186V6.06628L28.5928 5.13121L28.4856 7.72862C29.7713 5.02732 32.0213 4.71563 33.307 5.4429Z" fill="#1C3A6D"/>
</svg>