<?xml version="1.0" standalone="no"?>
<!DOCTYPE svg PUBLIC "-//W3C//DTD SVG 1.1//EN" "http://www.w3.org/Graphics/SVG/1.1/DTD/svg11.dtd">
<svg xmlns="http://www.w3.org/2000/svg" width="199.93600463867188" height="45.64400100708008" viewBox="0 0 199.936 45.644">
  <g id="Group_595" transform="translate(-15.842 -75.881)">
    <path id="Path_226" d="M139.091,107.354l6.538-8.325c3.491-4.166,10.2-12.7,12.869-16.438h.389c-1.982,8.8-4.755,20.218-6.578,26.662H138.854c.077-.628.155-1.263.238-1.9m-4.954,12.264c-.528,0-1.015-.326-1.015-1.218,0-1.983,1.575-4.611,3.213-7.177h.3c-.146,2.443-1.218,8.4-2.5,8.4M92.826,109.253a8.327,8.327,0,0,0,2.1-5.134c.008-.005.017-.009.024-.015,4.954-4.061,14.862-12.467,14.862-12.467,2.4,0,4.1.488,5.564.488a102.877,102.877,0,0,0-10.923,14.214.842.842,0,0,0-.163.446,1.009,1.009,0,0,0,.975.975,8.307,8.307,0,0,1,1.867-.406,11.028,11.028,0,0,1,2.965.609,13.856,13.856,0,0,0,3.979.771A8.247,8.247,0,0,0,120,106.013a53.678,53.678,0,0,0,3.7-4.263l-.006-.006c1.653-2.1,3.305-4.436,4.757-6.614a48.172,48.172,0,0,0-1.056,9.462.962.962,0,0,0,.691.934,5.325,5.325,0,0,0,4.548-.934c2.233-1.421,4.588-4.954,6.172-7.675-.325,1.99-.812,4.874-1.1,6.864-.163.975-.285,1.909-.407,2.842-.65.87-1.29,1.751-1.9,2.631Zm-53.877-3.118c.772-1.746,1.747-4.508,2.721-7.554a.6.6,0,0,0,.284.041c2.437-.122,4.061,2.964,5.645,5.969a18.39,18.39,0,0,0,2.99,4.662H36.9a9.634,9.634,0,0,0,2.046-3.118m5.929-23.147a.956.956,0,0,0-.091-.4H60.16a22.788,22.788,0,0,0-5.982,4.376,114.863,114.863,0,0,1-11.857,9.34c1.421-4.792,2.558-9.99,2.558-13.32M76.787,95.382a.9.9,0,0,1,.457-.13.9.9,0,0,0-.457.13m-13.635,7.865a8.492,8.492,0,0,0-.08,1.142,6.952,6.952,0,0,0,1.808,4.864H56.642c1.255-1.079,3.171-2.916,6.51-6.006a9.947,9.947,0,0,1,.921-2.988,9.94,9.94,0,0,0-.921,2.988m1.621-4.024a1,1,0,0,1,.37-.073,1,1,0,0,0-.37.073m11.863-.885c0,3.9-4.223,10.478-8.163,10.478-1.949,0-3.532-1.829-3.532-4.468a10.077,10.077,0,0,1,8.377-9c.119-.01.237-.015.354-.016,1.989-.041,2.964,1.137,2.964,3m11.736,10.706c-1.747,0-2.275-1-2.275-2.829a5.121,5.121,0,0,1,1.381-3.695.9.9,0,0,0,.244-.61.927.927,0,0,0-.934-.974.869.869,0,0,0-.731.366,7.066,7.066,0,0,0-1.828,4.913,5.927,5.927,0,0,0,.669,3.038H72.388C75.84,106.76,78.5,101.64,78.5,98.217a6.17,6.17,0,0,0-.042-.689,5.255,5.255,0,0,1-1.351-.347,5.255,5.255,0,0,0,1.351.347c-.017-.152-.046-.3-.074-.444.028.146.057.292.074.444a14.488,14.488,0,0,0,1.951.12,31.719,31.719,0,0,0,13.28-3.128c-.244,2.721-.406,5.6-.569,8.691-.2,3.127-1.584,5.833-4.751,5.833m55.836-11.315,1.422,1.3-1.422-1.3L139.66,103.5c.65-4.467,1.3-9.056,2.031-13.077.081-.609-.162-1.136-.894-1.136a.991.991,0,0,0-.974.771c-.731,3.087-4.3,10.518-8.2,12.955a3.514,3.514,0,0,1-2.315.772,42.693,42.693,0,0,1,2.884-14.538,1.186,1.186,0,0,0,.081-.366.981.981,0,0,0-.974-.934.878.878,0,0,0-.771.487c-1.706,2.761-5,7.878-8.2,12.02l0,.006a53.355,53.355,0,0,1-3.659,4.218,6.193,6.193,0,0,1-4.589,2.152,12.665,12.665,0,0,1-3.452-.649,12.68,12.68,0,0,0-3.452-.691,81.949,81.949,0,0,1,11.005-13.442.891.891,0,0,0,.284-.69.951.951,0,0,0-.974-.935c-2.68.082-4.223-.528-6.457-.528a10.6,10.6,0,0,0-1.665.122L95.108,101.561c.226-3.18.654-8.538.654-8.868a.883.883,0,0,0-.974-.933.777.777,0,0,0-.487.162c-3.736,2.518-9.422,3.817-13.6,3.817a7.968,7.968,0,0,1-3.012-.425,4.51,4.51,0,0,0-3.932-1.93c-3.3,0-7.114,2.52-9.174,5.943h0a.611.611,0,0,0-.084.067c-8.041,7.106-9.665,9.421-10.964,9.421-1.5,0-2.68-2.031-4.3-5.076-1.3-2.558-2.721-5.279-4.914-6.417a130.159,130.159,0,0,0,11.127-9.015c2.03-1.828,4.872-4.426,7.39-4.426A2.174,2.174,0,0,1,65.3,86.155,7.675,7.675,0,0,1,63.64,89.81a.76.76,0,0,0-.2.568.973.973,0,0,0,.934.935.868.868,0,0,0,.731-.366,9.037,9.037,0,0,0,2.112-4.792,3.957,3.957,0,0,0-1.953-3.564h90.966C153.842,85.833,150.561,89.794,144.208,97.729Zm18.984,11.524h-8.909c.577-2.07,1.247-4.579,1.946-7.342a18.588,18.588,0,0,0,6.963,7.342m4.448-16.316c1.056,0,1.543.406,1.543,1.137a2.254,2.254,0,0,1-.872,1.649,5.192,5.192,0,0,1-.525.41c-.1.066-.2.131-.3.2-2.286,1.407-6.414,2.27-9.429,2.578a18.971,18.971,0,0,1,7.195-5.448,6.782,6.782,0,0,1,2.389-.521m47.154,16.316H171.133c2.824-1.507,5.532-4.343,8.2-7.18l-1.3-1.38c-3.411,3.655-6.822,7.757-10.72,7.757-3.655,0-6.66-3.654-9.543-8.041,5.035-.446,13.279-1.747,13.279-6.66,0-2.112-1.5-2.68-3.127-2.68-3.776,0-7.919,3.046-10.476,6.01,1.2-4.875,2.4-10.035,3.383-14.488h29.23a2.439,2.439,0,0,0-.573,1.006c-.284,1.056.244,1.746,1.016,1.746A2.2,2.2,0,0,0,192.37,83.6a1.813,1.813,0,0,0,.027-1.006h22.4a.984.984,0,0,0,0-1.969h-53.53c.281-1.29.541-2.5.772-3.6a.953.953,0,0,0-.935-1.138.976.976,0,0,0-.812.487c-.922,1.587-1.752,2.917-2.664,4.254H16.892a.984.984,0,0,0,0,1.969H42.87c-1.317,1.07-3.294,1.486-5.383,1.858-3.7.732-7.919,1.585-9.381,6.783,0,.081-.041.162-.041.243a1.008,1.008,0,0,0,.934.975.878.878,0,0,0,.894-.731c1.137-4.06,4.467-4.711,7.96-5.4a17.961,17.961,0,0,0,5.035-1.462c-.568,5.807-3.614,15.634-5.685,20.508-.853,1.99-1.5,3.126-2.517,3.126-1.057,0-1.747-1.746-1.747-4.061A20.341,20.341,0,0,1,34.726,97.2a1.172,1.172,0,0,0,.081-.365.944.944,0,0,0-1.827-.325,24.122,24.122,0,0,0-1.909,8.325,7.424,7.424,0,0,0,1.139,4.417H16.826a.984.984,0,0,0,0,1.969H134.093c-1.678,2.656-2.88,5.187-2.88,7.177a2.987,2.987,0,0,0,2.924,3.126c2.925,0,3.755-4.651,4.472-10.3h14.139a.939.939,0,0,0,.232.03.953.953,0,0,0,.218-.03h61.6a.984.984,0,0,0,0-1.969" fill="#fff"/>
    <path id="Path_227" d="M685.858,139.486c2.193-2.355,4.345-4.873,6.172-7.147A21.114,21.114,0,0,0,690,140.42c0,2.843,1.544,3.817,3.33,3.817,2.68,0,6.782-2.071,16.569-10.111a.807.807,0,0,0,.325-.69.93.93,0,0,0-.934-.976.968.968,0,0,0-.568.2c-11.532,8.732-13.889,9.665-14.944,9.665-.974,0-1.543-.813-1.543-2.519,0-4.588,4.224-12.426,4.224-13.6a.935.935,0,0,0-1.706-.527,146.535,146.535,0,0,1-10.193,12.426h0Z" transform="translate(-506.522 -37.412)" fill="#fff"/>
  </g>
</svg>
